<svg width="69" height="69" viewBox="0 0 69 69" fill="none" xmlns="http://www.w3.org/2000/svg">
<path d="M51.75 23H48.875V17.25C48.875 9.315 42.435 2.875 34.5 2.875C26.565 2.875 20.125 9.315 20.125 17.25V23H17.25C14.0875 23 11.5 25.5875 11.5 28.75V57.5C11.5 60.6625 14.0875 63.25 17.25 63.25H51.75C54.9125 63.25 57.5 60.6625 57.5 57.5V28.75C57.5 25.5875 54.9125 23 51.75 23ZM34.5 48.875C31.3375 48.875 28.75 46.2875 28.75 43.125C28.75 39.9625 31.3375 37.375 34.5 37.375C37.6625 37.375 40.25 39.9625 40.25 43.125C40.25 46.2875 37.6625 48.875 34.5 48.875ZM25.875 23V17.25C25.875 12.4775 29.7275 8.625 34.5 8.625C39.2725 8.625 43.125 12.4775 43.125 17.25V23H25.875Z" fill="white" fill-opacity="0.8"/>
</svg>
