<svg width="195" height="86" viewBox="0 0 195 86" fill="none" xmlns="http://www.w3.org/2000/svg">
<path d="M11.16 81.56C8.68 81.56 6.8 80.86 5.52 79.46C4.24 78.06 3.6 76.3 3.6 74.18V73.76C3.6 71.64 4.22 69.96 5.46 68.72C6.74 67.44 8.64 66.8 11.16 66.8H43.26V65.6C43.26 65.04 42.92 64.76 42.24 64.76H7.62C6.54 64.76 5.7 64.44 5.1 63.8C4.5 63.16 4.2 62.38 4.2 61.46C4.2 60.5 4.48 59.7 5.04 59.06C5.64 58.42 6.5 58.1 7.62 58.1H23.88V55.46H6.3C3.38 55.46 1.92 54.18 1.92 51.62C1.92 50.38 2.28 49.42 3 48.74C3.76 48.06 4.86 47.72 6.3 47.72H53.7C55.14 47.72 56.22 48.06 56.94 48.74C57.7 49.42 58.08 50.38 58.08 51.62C58.08 54.18 56.62 55.46 53.7 55.46H36.12V58.1H48.9C51.38 58.1 53.12 58.56 54.12 59.48C55.12 60.36 55.62 61.76 55.62 63.68V72.74H17.7C17.34 72.74 17.04 72.84 16.8 73.04C16.6 73.24 16.5 73.5 16.5 73.82C16.5 74.14 16.6 74.4 16.8 74.6C17 74.76 17.3 74.84 17.7 74.84H53.94C55.1 74.84 55.94 75.16 56.46 75.8C57.02 76.44 57.3 77.24 57.3 78.2C57.3 79.16 57.02 79.96 56.46 80.6C55.94 81.24 55.1 81.56 53.94 81.56H11.16ZM16.68 36.8C16.68 37.44 16.82 37.9 17.1 38.18C17.38 38.46 17.86 38.6 18.54 38.6H43.26V35.9H16.68V36.8ZM4.38 30.74C4.38 28.9 4.96 27.56 6.12 26.72C7.32 25.84 8.8 25.4 10.56 25.4C11.96 25.4 13.22 25.76 14.34 26.48C15.46 27.16 16.18 28.16 16.5 29.48H43.38C43.62 28.08 44.3 27.06 45.42 26.42C46.54 25.74 47.86 25.4 49.38 25.4C51.1 25.4 52.54 25.84 53.7 26.72C54.9 27.6 55.5 28.94 55.5 30.74V45.2H11.1C8.46 45.2 6.68 44.7 5.76 43.7C4.84 42.66 4.38 41.02 4.38 38.78V30.74ZM102.9 31.16C102.9 29.28 103.48 27.82 104.64 26.78C105.8 25.74 107.22 25.22 108.9 25.22C110.58 25.22 112 25.74 113.16 26.78C114.32 27.82 114.9 29.28 114.9 31.16V81.56H102.9V31.16ZM90.72 78.14C90.88 76.3 90.96 75.02 90.96 74.3C90.96 71.34 90.52 68.7 89.64 66.38C88.72 69.3 87.66 71.78 86.46 73.82C85.3 75.82 84.04 77.3 82.68 78.26C81.32 79.18 79.96 79.64 78.6 79.64C77.44 79.64 76.38 79.3 75.42 78.62C74.42 77.9 73.92 76.86 73.92 75.5C73.92 74.14 74.4 72.96 75.36 71.96C75.4 69.36 74.72 67.08 73.32 65.12C72.08 69.36 70.22 72.84 67.74 75.56C67.1 76.28 66.3 76.86 65.34 77.3C64.38 77.74 63.4 77.96 62.4 77.96C61.12 77.96 60.02 77.58 59.1 76.82C58.18 76.06 57.72 75.02 57.72 73.7C57.72 72.38 58.14 71.18 58.98 70.1C60.62 68.06 61.86 66 62.7 63.92C63.54 61.8 64.16 58.86 64.56 55.1C65 51.34 65.22 46.08 65.22 39.32V32.6C65.22 30.8 65.7 29.42 66.66 28.46C67.66 27.5 68.94 27.02 70.5 27.02C72.02 27.02 73.28 27.52 74.28 28.52C75.32 29.52 75.84 30.88 75.84 32.6V39.56C75.84 44.84 75.66 49.44 75.3 53.36C77.9 55.04 79.9 57.32 81.3 60.2C81.98 56.16 82.32 49.6 82.32 40.52V32.6C82.32 30.8 82.8 29.42 83.76 28.46C84.76 27.5 86.04 27.02 87.6 27.02C89.12 27.02 90.38 27.52 91.38 28.52C92.42 29.52 92.94 30.88 92.94 32.6V40.76C92.94 44.52 92.74 48.46 92.34 52.58C95.02 54.74 97.1 57.66 98.58 61.34C100.1 65.02 100.86 69.74 100.86 75.5C100.86 76.66 100.84 77.54 100.8 78.14H90.72Z" fill="white"/>
<g clip-path="url(#clip0_487_1637)">
<path d="M170.312 38.3635C168.81 36.2753 165.348 31.9845 160.036 25.6083C158.289 23.5135 156.536 21.4244 154.776 19.341L153.414 17.733L152.836 17.0491L152.521 16.6778L152.459 16.5885L152.431 16.5745L151.091 15L149.391 16.3623C145.038 19.8555 141.526 24.2824 139.115 29.3157C137.714 32.112 136.733 35.0995 136.203 38.182C136.069 38.8651 135.957 39.5522 135.865 40.2422C135.278 40.1946 134.69 40.1639 134.101 40.1501L133.936 40.1417C131.788 40.0685 129.641 40.3265 127.571 40.9067L126.686 41.1551L126.231 41.9535C124.087 45.7198 122.887 49.95 122.736 54.2815C122.529 59.8495 124.074 65.3422 127.155 69.9847C130.147 74.5217 134.452 78.0384 139.495 80.0654L140.153 80.3306L140.352 80.4004L140.36 80.3976C142.997 81.3525 145.767 81.8875 148.57 81.9832C148.889 81.9944 149.207 82 149.525 82C153.063 82.0035 156.565 81.2992 159.826 79.9286L159.849 79.9397L160.722 79.535C165.155 77.4848 168.944 74.2662 171.685 70.2247C174.504 66.056 176.091 61.1781 176.266 56.1492C176.476 50.1164 174.471 44.1338 170.312 38.3635ZM150.538 57.0537C151.454 60.5265 151.275 63.8653 150.005 66.9864C146.837 63.8597 144.514 60.4204 143.096 56.755C141.58 52.8355 140.667 49.1058 140.377 45.6581C141.717 46.0964 142.951 46.6798 144.048 47.3945C147.208 49.452 149.391 52.7015 150.538 57.0537ZM151.116 73.8651C152.462 74.8924 153.88 75.8527 155.34 76.7349C153.187 77.3221 150.957 77.5791 148.727 77.497C148.379 77.4847 148.032 77.4642 147.685 77.4356C148.943 76.3612 150.091 75.1652 151.114 73.8651H151.116ZM154.877 55.9119C153.436 50.4486 150.614 46.3169 146.496 43.6341C144.612 42.4239 142.543 41.5282 140.371 40.982C140.428 40.3155 140.51 39.6515 140.62 38.9916C141.139 36.3221 141.993 33.7287 143.16 31.2726L143.171 31.2503C143.665 30.2509 144.221 29.2431 144.874 28.1655L145.131 27.7412L145.123 27.7384C146.644 25.3628 148.466 23.1942 150.544 21.2868L151.348 22.2388C153.224 24.461 154.988 26.5603 156.591 28.4837C160.195 32.808 164.871 38.4863 166.674 40.9904C170.239 45.9345 171.959 50.9818 171.783 55.9956C171.655 59.7794 170.563 63.468 168.612 66.7122C166.66 69.9564 163.913 72.649 160.63 74.5351C158.129 73.2799 155.755 71.7849 153.542 70.0712C155.748 65.6743 156.2 60.9145 154.88 55.9119H154.877ZM147.688 70.9785C146.067 73.0387 144.091 74.7932 141.854 76.1598C141.626 76.0782 141.399 75.9916 141.175 75.9002L140.994 75.8276C136.84 74.1153 133.303 71.1859 130.846 67.4247C128.318 63.5763 127.052 59.0362 127.222 54.4351C127.329 51.1464 128.171 47.9233 129.685 45.002C130.571 44.8066 131.464 44.6847 132.365 44.6363L132.599 44.6307C133.055 44.6214 133.5 44.6214 133.934 44.6307C134.568 44.6624 135.198 44.7275 135.824 44.8262C136.027 49.05 137.066 53.606 138.908 58.3713C140.687 62.9608 143.637 67.1986 147.685 70.9757L147.688 70.9785Z" fill="white"/>
</g>
<defs>
<clipPath id="clip0_487_1637">
<rect width="67" height="67" fill="white" transform="translate(116 15)"/>
</clipPath>
</defs>
</svg>
