<svg width="44" height="45" viewBox="0 0 44 45" fill="none" xmlns="http://www.w3.org/2000/svg">
<circle cx="22" cy="22.7969" r="22" fill="#FE6F0F"/>
<path d="M31.6562 20.9531H23.8438V13.1406C23.8438 12.519 23.5968 11.9229 23.1573 11.4833C22.7177 11.0438 22.1216 10.7969 21.5 10.7969C20.8784 10.7969 20.2823 11.0438 19.8427 11.4833C19.4032 11.9229 19.1562 12.519 19.1562 13.1406V20.9531H11.3438C10.7221 20.9531 10.126 21.2001 9.68647 21.6396C9.24693 22.0791 9 22.6753 9 23.2969C9 23.9185 9.24693 24.5146 9.68647 24.9542C10.126 25.3937 10.7221 25.6406 11.3438 25.6406H19.1562V33.4531C19.1562 34.0747 19.4032 34.6709 19.8427 35.1104C20.2823 35.5499 20.8784 35.7969 21.5 35.7969C22.1216 35.7969 22.7177 35.5499 23.1573 35.1104C23.5968 34.6709 23.8438 34.0747 23.8438 33.4531V25.6406H31.6562C32.2779 25.6406 32.874 25.3937 33.3135 24.9542C33.7531 24.5146 34 23.9185 34 23.2969C34 22.6753 33.7531 22.0791 33.3135 21.6396C32.874 21.2001 32.2779 20.9531 31.6562 20.9531Z" fill="white"/>
</svg>
